# xmcd CD database file
#
# Track frame offsets:
#	183
#	17175
#	29933
#	46505
#	60335
#	79670
#	92375
#	114040
#	131698
#	148673
#	156055
#	173243
#
# Disc length: 2459 seconds
#
# Revision: 2
# Processed by: cddbd v1.4PL0 Copyright (c) Steve Scherf et al.
# Submitted via: CDex 1.40Beta5
#
DISCID=8e09990c
DTITLE=Pino Daniele - Pino Daniele
DYEAR=1979
DGENRE=Blues
TTITLE0=Je stò vicino a te
TTITLE1=Chi tene 'o mare
TTITLE2=Basta na jurnata e sole
TTITLE3=Je so' pazzo
TTITLE4=Ninnananinnanoè
TTITLE5=Chillo è nu buono guaglione
TTITLE6=Ue man!
TTITLE7=Donna Cuncetta
TTITLE8=Il mare
TTITLE9=Viento
TTITLE10=Putesse essere allero
TTITLE11=E cerca 'e me capì'
EXTD=1979 EMI Italiana SpA YEAR: 1979 ID3G:   0
EXTT0=
EXTT1=
EXTT2=
EXTT3=
EXTT4=
EXTT5=
EXTT6=
EXTT7=
EXTT8=
EXTT9=
EXTT10=
EXTT11=
PLAYORDER=
